<svg width="18" height="16" viewBox="0 0 18 16" fill="none" xmlns="http://www.w3.org/2000/svg">
<path d="M7.11786 0.277333C7.22121 0.395951 7.28454 0.541116 7.29964 0.694073C7.31474 0.84703 7.28092 1.00075 7.20256 1.13537C6.59039 2.19689 6.27069 3.38676 6.27288 4.59551C6.27288 8.61668 9.74385 11.8728 14.0217 11.8728C14.5797 11.8728 15.1229 11.8178 15.6449 11.7128C15.8049 11.6801 15.9716 11.6926 16.1242 11.7488C16.2767 11.805 16.4083 11.9024 16.5026 12.0288C16.6021 12.1603 16.6529 12.3191 16.6469 12.4806C16.641 12.6421 16.5787 12.7972 16.4698 12.9219C15.6393 13.8853 14.5916 14.6616 13.4031 15.1941C12.2146 15.7267 10.9153 16.002 9.59984 16C4.71846 16 0.764648 12.2858 0.764648 7.70964C0.764648 4.2655 3.0031 1.31138 6.19029 0.0593244C6.34905 -0.00404638 6.5253 -0.0170529 6.69256 0.0222585C6.85982 0.06157 7.00906 0.151077 7.11786 0.277333Z" fill="black"/>
<path d="M12.1937 3.14746C12.2089 3.10415 12.2381 3.06646 12.2773 3.03975C12.3164 3.01304 12.3635 2.99866 12.4118 2.99866C12.4601 2.99866 12.5072 3.01304 12.5463 3.03975C12.5855 3.06646 12.6148 3.10415 12.6299 3.14746L13.0397 4.30951C13.2229 4.82753 13.6528 5.23355 14.2013 5.40655L15.4317 5.79357C15.4776 5.80791 15.5175 5.83553 15.5457 5.87252C15.574 5.9095 15.5892 5.95396 15.5892 5.99958C15.5892 6.0452 15.574 6.08966 15.5457 6.12664C15.5175 6.16362 15.4776 6.19125 15.4317 6.20559L14.2013 6.5926C13.9308 6.67772 13.685 6.82118 13.4834 7.01159C13.2817 7.20201 13.1298 7.43416 13.0397 7.68965L12.6299 8.8517C12.6148 8.895 12.5855 8.93269 12.5463 8.9594C12.5072 8.98611 12.4601 9.00049 12.4118 9.00049C12.3635 9.00049 12.3164 8.98611 12.2773 8.9594C12.2381 8.93269 12.2089 8.895 12.1937 8.8517L11.7839 7.68965C11.6938 7.43416 11.5419 7.20201 11.3403 7.01159C11.1386 6.82118 10.8928 6.67772 10.6223 6.5926L9.39192 6.20559C9.34607 6.19125 9.30616 6.16362 9.27788 6.12664C9.2496 6.08966 9.23437 6.0452 9.23438 5.99958C9.23437 5.95396 9.2496 5.9095 9.27788 5.87252C9.30616 5.83553 9.34607 5.80791 9.39192 5.79357L10.6223 5.40655C10.8928 5.32143 11.1386 5.17798 11.3403 4.98756C11.5419 4.79714 11.6938 4.56499 11.7839 4.30951L12.1937 3.14746ZM15.4434 0.0983307C15.4538 0.0698558 15.4734 0.0451644 15.4994 0.0276893C15.5254 0.0102143 15.5565 0.000823975 15.5884 0.000823975C15.6203 0.000823975 15.6514 0.0102143 15.6774 0.0276893C15.7034 0.0451644 15.723 0.0698558 15.7335 0.0983307L16.0067 0.872363C16.1284 1.21838 16.4154 1.48939 16.7818 1.60439L17.6013 1.8624C17.6315 1.87228 17.6576 1.89078 17.6761 1.91533C17.6946 1.93988 17.7046 1.96927 17.7046 1.99941C17.7046 2.02955 17.6946 2.05894 17.6761 2.08349C17.6576 2.10804 17.6315 2.12654 17.6013 2.13642L16.7818 2.39443C16.6012 2.45115 16.4371 2.54685 16.3026 2.67392C16.1681 2.80099 16.0667 2.95594 16.0067 3.12646L15.7335 3.90049C15.723 3.92896 15.7034 3.95366 15.6774 3.97113C15.6514 3.98861 15.6203 3.998 15.5884 3.998C15.5565 3.998 15.5254 3.98861 15.4994 3.97113C15.4734 3.95366 15.4538 3.92896 15.4434 3.90049L15.1702 3.12646C15.1101 2.95594 15.0088 2.80099 14.8742 2.67392C14.7397 2.54685 14.5756 2.45115 14.3951 2.39443L13.5755 2.13642C13.5454 2.12654 13.5192 2.10804 13.5007 2.08349C13.4822 2.05894 13.4723 2.02955 13.4723 1.99941C13.4723 1.96927 13.4822 1.93988 13.5007 1.91533C13.5192 1.89078 13.5454 1.87228 13.5755 1.8624L14.3951 1.60439C14.7614 1.48939 15.0484 1.21838 15.1702 0.872363L15.4434 0.0993307V0.0983307Z" fill="black"/>
</svg>
