<svg width="17" height="16" viewBox="0 0 17 16" fill="none" xmlns="http://www.w3.org/2000/svg">
<path d="M8.47059 11C7.62814 11 6.82019 10.6839 6.22448 10.1213C5.62878 9.55871 5.29412 8.79565 5.29412 8C5.29412 7.20435 5.62878 6.44129 6.22448 5.87868C6.82019 5.31607 7.62814 5 8.47059 5C9.31304 5 10.121 5.31607 10.7167 5.87868C11.3124 6.44129 11.6471 7.20435 11.6471 8C11.6471 8.79565 11.3124 9.55871 10.7167 10.1213C10.121 10.6839 9.31304 11 8.47059 11ZM8.47059 12C9.59386 12 10.6711 11.5786 11.4654 10.8284C12.2597 10.0783 12.7059 9.06087 12.7059 8C12.7059 6.93913 12.2597 5.92172 11.4654 5.17157C10.6711 4.42143 9.59386 4 8.47059 4C7.34732 4 6.27005 4.42143 5.47578 5.17157C4.68151 5.92172 4.23529 6.93913 4.23529 8C4.23529 9.06087 4.68151 10.0783 5.47578 10.8284C6.27005 11.5786 7.34732 12 8.47059 12ZM8.47059 0C8.611 0 8.74566 0.0526784 8.84494 0.146447C8.94422 0.240215 9 0.367392 9 0.5V2.5C9 2.63261 8.94422 2.75979 8.84494 2.85355C8.74566 2.94732 8.611 3 8.47059 3C8.33018 3 8.19552 2.94732 8.09624 2.85355C7.99695 2.75979 7.94118 2.63261 7.94118 2.5V0.5C7.94118 0.367392 7.99695 0.240215 8.09624 0.146447C8.19552 0.0526784 8.33018 0 8.47059 0V0ZM8.47059 13C8.611 13 8.74566 13.0527 8.84494 13.1464C8.94422 13.2402 9 13.3674 9 13.5V15.5C9 15.6326 8.94422 15.7598 8.84494 15.8536C8.74566 15.9473 8.611 16 8.47059 16C8.33018 16 8.19552 15.9473 8.09624 15.8536C7.99695 15.7598 7.94118 15.6326 7.94118 15.5V13.5C7.94118 13.3674 7.99695 13.2402 8.09624 13.1464C8.19552 13.0527 8.33018 13 8.47059 13ZM16.9412 8C16.9412 8.13261 16.8854 8.25979 16.7861 8.35355C16.6868 8.44732 16.5522 8.5 16.4118 8.5H14.2941C14.1537 8.5 14.0191 8.44732 13.9198 8.35355C13.8205 8.25979 13.7647 8.13261 13.7647 8C13.7647 7.86739 13.8205 7.74021 13.9198 7.64645C14.0191 7.55268 14.1537 7.5 14.2941 7.5H16.4118C16.5522 7.5 16.6868 7.55268 16.7861 7.64645C16.8854 7.74021 16.9412 7.86739 16.9412 8ZM3.17647 8C3.17647 8.13261 3.12069 8.25979 3.02141 8.35355C2.92213 8.44732 2.78747 8.5 2.64706 8.5H0.529412C0.389003 8.5 0.254345 8.44732 0.155061 8.35355C0.0557772 8.25979 0 8.13261 0 8C0 7.86739 0.0557772 7.74021 0.155061 7.64645C0.254345 7.55268 0.389003 7.5 0.529412 7.5H2.64706C2.78747 7.5 2.92213 7.55268 3.02141 7.64645C3.12069 7.74021 3.17647 7.86739 3.17647 8ZM14.4604 2.343C14.5596 2.43676 14.6154 2.56392 14.6154 2.6965C14.6154 2.82908 14.5596 2.95624 14.4604 3.05L12.9632 4.465C12.914 4.51142 12.8555 4.54823 12.7912 4.57333C12.727 4.59843 12.6581 4.61132 12.5885 4.61128C12.448 4.61118 12.3133 4.55839 12.2141 4.4645C12.1649 4.41801 12.1259 4.36284 12.0994 4.30212C12.0728 4.24141 12.0591 4.17634 12.0592 4.11065C12.0593 3.97796 12.1152 3.85075 12.2146 3.757L13.7118 2.343C13.811 2.24926 13.9457 2.19661 14.0861 2.19661C14.2264 2.19661 14.3611 2.24926 14.4604 2.343ZM4.72659 11.536C4.82584 11.6298 4.88159 11.7569 4.88159 11.8895C4.88159 12.0221 4.82584 12.1492 4.72659 12.243L3.22941 13.657C3.12956 13.7481 2.99583 13.7985 2.85702 13.7973C2.71821 13.7962 2.58543 13.7436 2.48727 13.6509C2.38912 13.5582 2.33344 13.4328 2.33223 13.3017C2.33103 13.1706 2.38439 13.0443 2.48082 12.95L3.978 11.536C4.07728 11.4423 4.21191 11.3896 4.35229 11.3896C4.49268 11.3896 4.62731 11.4423 4.72659 11.536ZM14.4604 13.657C14.3611 13.7507 14.2264 13.8034 14.0861 13.8034C13.9457 13.8034 13.811 13.7507 13.7118 13.657L12.2146 12.243C12.1182 12.1487 12.0648 12.0224 12.066 11.8913C12.0672 11.7602 12.1229 11.6348 12.221 11.5421C12.3192 11.4494 12.452 11.3968 12.5908 11.3957C12.7296 11.3945 12.8633 11.4449 12.9632 11.536L14.4604 12.95C14.5596 13.0438 14.6154 13.1709 14.6154 13.3035C14.6154 13.4361 14.5596 13.5632 14.4604 13.657ZM4.72659 4.465C4.62731 4.55874 4.49268 4.61139 4.35229 4.61139C4.21191 4.61139 4.07728 4.55874 3.978 4.465L2.48082 3.05C2.43026 3.00388 2.38993 2.9487 2.36218 2.8877C2.33444 2.8267 2.31983 2.76109 2.31922 2.6947C2.31861 2.62831 2.332 2.56247 2.35862 2.50102C2.38524 2.43957 2.42455 2.38375 2.47426 2.3368C2.52397 2.28986 2.58308 2.25273 2.64814 2.22759C2.7132 2.20245 2.78292 2.1898 2.85321 2.19037C2.92351 2.19095 2.99298 2.20474 3.05757 2.23095C3.12216 2.25715 3.18058 2.29524 3.22941 2.343L4.72659 3.757C4.77589 3.80345 4.81501 3.85862 4.8417 3.91937C4.86838 3.98011 4.88212 4.04523 4.88212 4.111C4.88212 4.17677 4.86838 4.24189 4.8417 4.30263C4.81501 4.36338 4.77589 4.41855 4.72659 4.465Z" fill="black"/>
</svg>
